<?xml version="1.0" encoding="utf-8"?>
<!-- Generator: Adobe Illustrator 26.0.2, SVG Export Plug-In . SVG Version: 6.00 Build 0)  -->
<svg version="1.2" baseProfile="tiny" id="Layer_1" xmlns="http://www.w3.org/2000/svg" xmlns:xlink="http://www.w3.org/1999/xlink"
	 x="0px" y="0px" viewBox="0 0 500 500" overflow="visible" xml:space="preserve">
<g>
	<path fill="#7600DD" stroke="#231F20" stroke-width="11" stroke-miterlimit="10" d="M47.63,16.38c34.9,0,65.99,0,100,0
		c0.56,10.31,1.52,19.83,1.53,29.35c0.11,81.9-0.62,163.81,0.31,245.71c0.52,45.92,16.08,84.72,60.97,105.56
		c49.41,22.93,109.67,0.93,131.38-48.9c6.15-14.12,12.76-20.78,29.43-20.2c33.56,1.17,38.74-7.61,44.32-39.88
		c2.43-14.06,17.43-25.94,30.75-44.4c25.6,129.06-41.2,237.98-164.34,246.11c-47.77,3.15-94.94,2.06-138.8-22.32
		c-58.55-32.55-89.11-84.31-93.48-148.34c-4.78-69.89-1.75-140.32-2.04-210.51C47.53,78.95,47.63,49.34,47.63,16.38z"/>
	<path fill="#7600DD" stroke="#231F20" stroke-width="11" stroke-miterlimit="10" d="M367.74,248.43c0-9.43,0-19.01,0-32.37
		c48.57-0.74,49.09-35.24,47.32-71.77c-0.95-19.73,0.66-39.6-0.79-59.27c-1.55-21.04-12.39-37.25-35.16-36.05
		c-22.01,1.16-35.56,13.91-36.57,38.36c-1.61,39-2.24,38.98-41.76,64.79c3.22-37.1,1.97-70.15,9.88-100.84
		c8.25-31.99,45.79-47.01,84.4-40.97c32.22,5.04,55.88,30.71,57.07,64.7c1.2,34.1,1.08,68.29,0.28,102.41
		C451.3,225.44,418.63,252.87,367.74,248.43z"/>
	<path fill="#7600DD" stroke="#231F20" stroke-width="11" stroke-miterlimit="10" d="M342.79,313.22
		c-37.71,7.34-40.04,5.93-39.76-26.4c0.23-26.96-0.07-54.1,2.88-80.82c3.54-32.09,37.63-60.66,69.57-59.65
		c5.29,0.17,14.91,8.78,14.56,12.78c-0.8,9.03-5.89,24.8-10.47,25.25c-33.61,3.29-37.57,24.99-36.91,51.79
		C343.28,262.05,342.79,287.97,342.79,313.22z"/>
</g>
</svg>
